# 3ds Max Wavefront OBJ Exporter v0.97b - (c)2007 guruware
# File Created: 06.05.2017 21:16:40

mtllib Paper_518.mtl

#
# object Box001
#

v  -32.5133 12.0666 26.4353
v  -32.5133 12.0666 -13.8873
v  -2.4730 12.0666 -13.8873
v  -2.4730 12.0666 26.4353
v  -32.5133 12.4214 26.4353
v  -2.4730 12.4214 26.4353
v  -2.4730 12.4214 -13.8873
v  -32.5133 12.4214 -13.8873
# 8 vertices

vn 0.0000 -1.0000 -0.0000
vn 0.0000 1.0000 -0.0000
vn 0.0000 0.0000 1.0000
vn 1.0000 0.0000 -0.0000
vn 0.0000 0.0000 -1.0000
vn -1.0000 0.0000 -0.0000
# 6 vertex normals

vt 1.0000 0.0000 0.0000
vt 1.0000 1.0000 0.0000
vt 0.0000 1.0000 0.0000
vt 0.0000 0.0000 0.0000
# 4 texture coords

g Box001
usemtl 02___Default
s off
f 1/1/1 2/2/1 3/3/1 4/4/1 
f 5/4/2 6/1/2 7/2/2 8/3/2 
f 1/4/3 4/1/3 6/2/3 5/3/3 
f 4/4/4 3/1/4 7/2/4 6/3/4 
f 3/4/5 2/1/5 8/2/5 7/3/5 
f 2/4/6 1/1/6 5/2/6 8/3/6 
# 6 polygons

#
# object Box002
#

v  -37.2196 12.3465 21.8608
v  -26.7834 12.3465 -17.0878
v  2.2334 12.3465 -9.3128
v  -8.2029 12.3465 29.6358
v  -37.2196 12.7013 21.8608
v  -8.2029 12.7013 29.6358
v  2.2334 12.7013 -9.3128
v  -26.7834 12.7013 -17.0878
# 8 vertices

vn 0.0000 -1.0000 -0.0000
vn 0.0000 1.0000 -0.0000
vn -0.2588 0.0000 0.9659
vn 0.9659 0.0000 0.2588
vn 0.2588 0.0000 -0.9659
vn -0.9659 0.0000 -0.2588
# 6 vertex normals

vt 1.0000 0.0000 0.0000
vt 1.0000 1.0000 0.0000
vt 0.0000 1.0000 0.0000
vt 0.0000 0.0000 0.0000
# 4 texture coords

g Box002
usemtl 02___Default
s off
f 9/5/7 10/6/7 11/7/7 12/8/7 
f 13/8/8 14/5/8 15/6/8 16/7/8 
f 9/8/9 12/5/9 14/6/9 13/7/9 
f 12/8/10 11/5/10 15/6/10 14/7/10 
f 11/8/11 10/5/11 16/6/11 15/7/11 
f 10/8/12 9/5/12 13/6/12 16/7/12 
# 6 polygons

#
# object Box003
#

v  21.5442 12.0666 27.8008
v  7.7531 12.0666 -10.0901
v  35.9818 12.0666 -20.3644
v  49.7729 12.0666 17.5264
v  21.5442 12.4214 27.8008
v  49.7729 12.4214 17.5264
v  35.9818 12.4214 -20.3644
v  7.7531 12.4214 -10.0901
# 8 vertices

vn 0.0000 -1.0000 -0.0000
vn 0.0000 1.0000 -0.0000
vn 0.3420 0.0000 0.9397
vn 0.9397 0.0000 -0.3420
vn -0.3420 0.0000 -0.9397
vn -0.9397 0.0000 0.3420
# 6 vertex normals

vt 1.0000 0.0000 0.0000
vt 1.0000 1.0000 0.0000
vt 0.0000 1.0000 0.0000
vt 0.0000 0.0000 0.0000
# 4 texture coords

g Box003
usemtl 02___Default
s off
f 17/9/13 18/10/13 19/11/13 20/12/13 
f 21/12/14 22/9/14 23/10/14 24/11/14 
f 17/12/15 20/9/15 22/10/15 21/11/15 
f 20/12/16 19/9/16 23/10/16 22/11/16 
f 19/12/17 18/9/17 24/10/17 23/11/17 
f 18/12/18 17/9/18 21/10/18 24/11/18 
# 6 polygons

